GIL04_xslow1_RRA_states
nRows=4
nColumns=47

# SIMM Motion File Header:
name GIL04_xslow1_RRA_states
datacolumns 47
datarows 4
otherdata 1
range 1.11099999999998820000 1.11249999999998810000
endheader
time	pelvis_tx	pelvis_ty	pelvis_tz	pelvis_tilt	pelvis_list	pelvis_rotation	hip_flexion_r	hip_adduction_r	hip_rotation_r	knee_angle_r	ankle_angle_r	subtalar_angle_r	mtp_angle_r	hip_flexion_l	hip_adduction_l	hip_rotation_l	knee_angle_l	ankle_angle_l	subtalar_angle_l	mtp_angle_l	lumbar_extension	lumbar_bending	lumbar_rotation	pelvis_tx_u	pelvis_ty_u	pelvis_tz_u	pelvis_tilt_u	pelvis_list_u	pelvis_rotation_u	hip_flexion_r_u	hip_adduction_r_u	hip_rotation_r_u	knee_angle_r_u	ankle_angle_r_u	subtalar_angle_r_u	mtp_angle_r_u	hip_flexion_l_u	hip_adduction_l_u	hip_rotation_l_u	knee_angle_l_u	ankle_angle_l_u	subtalar_angle_l_u	mtp_angle_l_u	lumbar_extension_u	lumbar_bending_u	lumbar_rotation_u
      1.11099999999998820000	      1.17902061204052040000	      0.73823611832034397000	     -0.21055242413380210000	      1.35372156213011930000	      0.68224365590972369000	     -3.67241291240294480000	    -14.97510888775094400000	      1.37936230692413500000	      1.69488568555951400000	    -21.17841252926517700000	     -1.16546310119142290000	      0.00000000000005776026	     -0.00000000000030785946	     12.73042500178374500000	      2.79653094747742430000	     -5.39464495495733230000	      2.50242785566450990000	     -6.56479936256825080000	      0.00000000000000496728	     -0.00000000000001422841	     -5.28004983010503630000	     -4.14798422940047560000	      9.22323052656087410000	      0.60711784477316311000	      0.05775730514682191100	     -0.08508053145688516900	    -36.96157188575977400000	     -1.09186073207984150000	      3.49026260502049460000	     32.64028306525977300000	    -19.49359400282457600000	    -36.54087300690069600000	    -33.32557476689837700000	   -180.20360247290353000000	      0.00000000000004941350	     -0.00000000000111764041	    -11.95739262900105600000	      7.17767409469670440000	     -4.93239446337618940000	      5.63444574616942790000	    -14.59062446606384700000	     -0.00000000000000559097	     -0.00000000000032075030	     26.08668508101472100000	      0.68523921054844539000	     22.94590900270112900000
      1.11149999999998820000	      1.17932414826236930000	      0.73826489595128864000	     -0.21059497226355756000	      1.33524211271564420000	      0.68170238199991984000	     -3.67066639592432910000	    -14.95874880872107600000	      1.36960036209063650000	      1.67664000748903930000	    -21.19511619556443400000	     -1.25564251202726320000	      0.00000000000005778399	     -0.00000000000030841529	     12.72443204540336300000	      2.80013595937601290000	     -5.39707181144848920000	      2.50529143425271040000	     -6.57214714083731980000	      0.00000000000000496684	     -0.00000000000001439233	     -5.26700296793740460000	     -4.14764205513636950000	      9.23468331360583860000	      0.60702721959054540000	      0.05735388384516106700	     -0.08511230447133368000	    -36.95581997352766000000	     -1.07294111287871810000	      3.49585636344840720000	     32.79989077030566600000	    -19.55447231028529500000	    -36.44159542785956100000	    -33.48967190701387900000	   -180.51360901881253000000	      0.00000000000005003295	     -0.00000000000112392019	    -12.01469774856125900000	      7.24265167525077210000	     -4.77452689095271940000	      5.81931012186156060000	    -14.79978196914038300000	     -0.00000000000000920011	     -0.00000000000032451344	     26.10056589210811500000	      0.68318917174817406000	     22.86538112375020800000
      1.11199999999998810000	      1.17962763943929620000	      0.73829347286782954000	     -0.21063753675066496000	      1.31676614867841410000	      0.68117100604815417000	     -3.66891700560072480000	    -14.94230913989284000000	      1.35980755124026230000	      1.65844434474589700000	    -21.21190279436084600000	     -1.34597609724396410000	      0.00000000000005780726	     -0.00000000000030897208	     12.71841003640869700000	      2.80377387270158170000	     -5.39941897916063060000	      2.50824660945465050000	     -6.57959840525111250000	      0.00000000000000496107	     -0.00000000000001455563	     -5.25394946234991430000	     -4.14730130639413020000	      9.24609605264111250000	      0.60693766962125983000	      0.05695444494842601100	     -0.08514595183759116100	    -36.94762891875847500000	     -1.05227393985026500000	      3.50175275598532340000	     32.95864081051514900000	    -19.61705086114762900000	    -36.34079036602580700000	    -33.65732812863309000000	   -180.81993668325262000000	      0.00000000000004137182	     -0.00000000000109853541	    -12.07360858768087300000	      7.30927059108768340000	     -4.61364355249195860000	      6.00083637232970890000	    -15.00450429418588500000	     -0.00000000000000668828	     -0.00000000000033023509	     26.11325784437085300000	      0.67954206786164584000	     22.78572306524235500000
      1.11249999999998810000	      1.17993108610823460000	      0.73832185106627157000	     -0.21068011852640159000	      1.29829489147617490000	      0.68065039494725132000	     -3.66716459056388500000	    -14.92579031136599000000	      1.34998303352533950000	      1.64029947069031090000	    -21.22877411807473900000	     -1.43646182978034510000	      0.00000000000005782699	     -0.00000000000030951898	     12.71235817138055100000	      2.80744549687406500000	     -5.40168495975127530000	      2.51129170435526070000	     -6.58715089518127520000	      0.00000000000000495633	     -0.00000000000001472121	     -5.24088991154316640000	     -4.14696277558107430000	      9.25746918848667380000	      0.60684917722257570000	      0.05655902682510301900	     -0.08518146525098309300	    -36.93699177654386300000	     -1.02988540002872030000	      3.50796477863456160000	     33.11652990740811500000	    -19.68129564653720500000	    -36.23846410694833500000	    -33.82855042438853800000	   -181.12254995409390000000	      0.00000000000003096759	     -0.00000000000107148110	    -12.13411200142663800000	      7.37749098840301890000	     -4.44978908041624430000	      6.17896487912147310000	    -15.20472747277673200000	     -0.00000000000001573705	     -0.00000000000032999051	     26.12474105748572500000	      0.67431981547110587000	     22.70697597857448700000
